<svg width="115" height="115" viewBox="0 0 115 115" fill="none" xmlns="http://www.w3.org/2000/svg">
<g clip-path="url(#clip0_1681_14732)">
<rect width="115" height="115" rx="57.5" fill="#DCEDFF"/>
<rect x="44.6982" y="68.9434" width="9.97992" height="62.6625" fill="#435BBF"/>
<path d="M14.71 61.8956C14.71 52.7537 22.1209 45.3428 31.2628 45.3428H62.6012C71.7431 45.3428 79.154 52.7537 79.154 61.8956V82.653C79.154 83.4841 78.4803 84.1578 77.6492 84.1578H16.2148C15.3837 84.1578 14.71 83.4841 14.71 82.653V61.8956Z" fill="#5472EF"/>
<path d="M48.7217 62.0589C48.7217 52.8268 56.2058 45.3428 65.4378 45.3428C74.6699 45.3428 82.154 52.8269 82.154 62.0589V84.1578H48.7217V62.0589Z" fill="#222E60"/>
<rect x="59.1738" y="56.7568" width="12.5277" height="3.12426" rx="1.56213" fill="#DDE3FC"/>
<circle cx="23.2083" cy="57.3548" r="4.01492" fill="#DDE3FC"/>
<rect x="22.0039" y="38.8862" width="2.40896" height="19.4321" rx="1.20448" fill="#32448F"/>
<path d="M14.3993 43.3931C13.4333 42.9762 13.4333 41.6064 14.3993 41.1895L24.4128 36.8682L24.4128 47.7144L14.3993 43.3931Z" fill="#FFCB71"/>
</g>
<circle cx="87.2159" cy="42.7312" r="16.5091" transform="rotate(-60 87.2159 42.7312)" fill="#EF5454"/>
<path d="M91.6553 47.1709L82.7764 38.292" stroke="white" strokeWidth="3" strokeLinecap="round" stroke-linejoin="round"/>
<path d="M82.7764 47.1709L91.6552 38.292" stroke="white" strokeWidth="3" strokeLinecap="round" stroke-linejoin="round"/>
<path d="M70.8571 53.7252C70.082 53.7024 69.6267 52.8443 70.0423 52.1896L73.5981 46.5897L77.4878 53.9203L70.8571 53.7252Z" fill="#EF5454"/>
<defs>
<clipPath id="clip0_1681_14732">
<rect width="115" height="115" rx="57.5" fill="white"/>
</clipPath>
</defs>
</svg>
