<svg width="115" height="115" viewBox="0 0 115 115" fill="none" xmlns="http://www.w3.org/2000/svg">
<g clip-path="url(#clip0_2431_7973)">
<rect width="115" height="115" rx="57.5" fill="#DCEDFF"/>
<path d="M69.1276 89.5493C69.0796 88.4255 69.8961 83.8059 69.6272 83.4111C69.2911 82.9176 67.6971 76.4462 69.4714 75.4806C71.2457 74.5151 71.6581 79.4989 72.3312 79.7414C73.0043 79.9839 76.0883 80.3686 77.099 79.6157C78.1097 78.8627 79.4587 76.37 80.509 76.3734C81.3492 76.3761 81.5089 77.7344 81.4838 78.4132C82.1618 77.6497 83.6722 76.2821 84.2899 76.92C84.8076 77.4546 84.6498 78.6039 84.411 79.5811C84.3649 79.7697 84.3158 79.952 84.2679 80.1221C85.2742 78.9883 86.6883 78.5827 87.182 79.4395C87.7903 80.495 86.4537 83.2232 84.3882 85.4904C81.3539 88.8212 78.6476 87.1788 77.6172 88.0635C77.1009 88.5068 76.8332 90.7067 76.6764 91.4907L69.1276 89.5493Z" fill="#FFD3B0"/>
<path d="M84.4698 79.8075C83.9775 80.5033 82.6111 82.0116 81.0834 82.4785" stroke="#EEAA8D" stroke-width="0.575" stroke-linecap="round"/>
<path d="M81.5345 78.127C81.1911 78.7494 80.2603 80.0921 79.2841 80.483" stroke="#EEAA8D" stroke-width="0.575" stroke-linecap="round"/>
<path d="M86.1242 82.8346C86.5893 81.5919 85.9408 80.8528 84.7038 82.0876C83.1576 83.6311 81.7031 84.8936 79.4815 84.8086" stroke="#EEAA8D" stroke-width="0.575" stroke-linecap="round"/>
<path d="M77.326 88.8475C77.1131 88.163 69.6677 86.1927 69.2172 86.697C64.2283 92.2825 57.4386 113.817 54.9709 118.729C54.9107 121.062 72.8445 120.134 73.966 117.295C75.7616 112.751 79.2045 94.887 77.326 88.8475Z" fill="#5472EF"/>
<path d="M65.6651 111.424C58.6985 97.2408 52.0982 84.3915 44.4892 81.1383C36.8802 77.8852 42.4369 109.775 38.46 114.654C34.4831 119.534 40.8022 119.967 45.0487 120.648L62.0348 123.372C64.9834 122.49 70.7437 121.763 65.6651 111.424Z" fill="#5472EF"/>
<path d="M0.266469 90.4969C8.49561 71.9772 28.3835 73.7333 35.4235 75.9858C63.3989 84.937 61.8088 132.374 47.6654 153.215L-16.1396 142.981C-10.7475 121.312 -1.92157 95.4211 0.266469 90.4969Z" fill="#435BBF"/>
<path d="M51.7917 33.4487C55.8366 35.0188 57.3001 40.2414 57.5263 42.6564C61.2906 42.263 64.5679 46.9211 61.1907 50.0465C62.2234 50.669 64.2322 53.079 64.0059 57.7387C63.3806 70.6133 37.6912 81.8531 26.6259 70.7669C23.7439 67.8795 24.6861 64.4909 25.9512 63.446C20.0841 61.1336 22.0215 54.8312 24.3613 53.7527C20.316 46.6348 26.2055 41.7077 28.7459 41.2587C31.2049 35.8832 38.6721 34.8721 42.0984 35.0385C43.6441 33.8543 47.7468 31.8785 51.7917 33.4487Z" fill="#6D3654"/>
<path d="M38.7742 86.7474C34.6813 87.2792 33.5171 90.7425 31.4457 94.3265C23.3765 93.0323 17.4084 79.667 24.4046 74.0217C28.4627 70.7471 33.9653 72.416 38.1838 74.4563C41.4792 76.0502 46.2843 82.2215 46.9594 86.1618C47.7552 90.8068 44.0005 95.3979 42.8129 95.6069C42.4808 93.7236 42.2404 88.5804 38.7742 86.7474Z" fill="white"/>
<path d="M27.9098 77.7286L33.6388 66.4476L43.196 68.0102L42.8728 84.941C39.313 90.5498 28.4025 82.5056 27.9098 77.7286Z" fill="#FFD3B0"/>
<path d="M31.5418 70.5769L33.6388 66.4477L37.1214 67.0171L43.1541 70.2008L42.9759 79.5411C40.6048 78.4935 34.0403 75.2583 31.5418 70.5769Z" fill="#EEAA8D"/>
<path d="M51.3416 77.9771C56.1716 77.5248 58.8165 58.4211 55.8229 49.3465C54.376 43.7815 36.9952 48.0887 38.5087 52.2833C39.245 54.3241 38.3968 54.6819 37.3357 55.3173C36.2745 55.9526 35.1422 57.9582 35.4183 59.3453C35.6943 60.7325 35.5945 62.7882 34.3072 61.0085C33.0199 59.2289 30.4188 49.143 27.7376 54.8511C25.5926 59.4176 28.8839 61.8899 30.7978 62.5553C33.3156 74.3542 46.5115 78.4294 51.3416 77.9771Z" fill="#FFD3B0"/>
<path d="M42.3227 67.9413C43.9496 68.0571 46.0873 68.0515 48.3873 71.092" stroke="#EEAA8D" stroke-width="1.15" stroke-linecap="round"/>
<path d="M49.7552 60.3851C51.2914 62.352 53.4925 65.9017 53.2644 66.5273C53.0777 67.0392 50.0085 66.3692 48.5164 65.5286" stroke="#EEAA8D" stroke-width="1.15" stroke-linecap="round"/>
<ellipse cx="43.9232" cy="58.228" rx="2.88393" ry="1.55888" transform="rotate(10.5041 43.9232 58.228)" fill="white"/>
<circle cx="43.4421" cy="58.2473" r="1.03925" transform="rotate(2.78042 43.4421 58.2473)" fill="#141414"/>
<ellipse cx="54.5113" cy="60.0228" rx="2.46926" ry="1.55888" transform="rotate(10.3903 54.5113 60.0228)" fill="white"/>
<circle cx="53.6963" cy="59.9941" r="1.03925" transform="rotate(2.78042 53.6963 59.9941)" fill="#141414"/>
<path d="M32.3807 55.8567C31.8836 54.619 31.5291 53.5115 31.3401 52.6195C29.9431 46.0264 32.4149 37.5607 41.4063 36.2802C46.4983 35.555 55.0613 36.499 57.839 46.5934C58.1883 47.8629 58.5379 49.3746 58.8369 51.0259C56.0492 51.9256 49.1955 52.3948 42.7028 48.2246C42.1295 50.6008 40.4785 56.0156 34.4302 55.0349C34.0587 55.6333 33.2757 55.051 32.3807 55.8567Z" fill="#6D3654"/>
<path d="M40.8112 36.7603C42.1863 34.67 46.3075 31.0907 51.7913 33.4954" stroke="#4F1836" stroke-width="0.765325" stroke-linecap="round"/>
<path d="M17.4773 49.7522C15.6262 51.829 14.046 56.2831 13.4873 58.2505L19.9799 62.5C21.3621 61.5527 23.9876 59.9434 24.3563 59.5599C25.4693 58.4026 25.4872 56.6497 25.9454 55.5752C26.6072 54.0232 25.9694 53.4 25.8214 53.0126C25.6733 52.6251 25.6469 51.8956 25.7726 51.149C25.8732 50.5517 25.0234 49.857 24.5859 49.5843C24.9367 49.3164 25.6646 48.7252 25.7701 48.5042C25.902 48.2278 26.0357 46.8001 25.1097 46.4736C24.1837 46.1471 19.7912 47.1562 17.4773 49.7522Z" fill="#FFD3B0"/>
<path d="M25.1839 49.3048C24.7612 49.5122 23.7956 50.0378 23.3141 50.48" stroke="#EEAA8D" stroke-width="1.15" stroke-linecap="round"/>
<path d="M26.1098 52.4409L24.6634 54.1236" stroke="#EEAA8D" stroke-width="1.15" stroke-linecap="round"/>
<path d="M12.9754 57.0319C13.4471 56.8206 21.0166 61.5115 20.9332 62.0063C18.6729 75.43 10.1223 87.7967 5.30217 100.444C2.49646 101.134 -9.55121 82.4598 -8.07509 80.6004C-2.49563 73.5721 4.29706 60.9197 12.9754 57.0319Z" fill="#5472EF"/>
<rect x="68.6278" y="42.6538" width="34.0481" height="26.6769" rx="2.875" fill="white"/>
<path d="M68.6278 45.5288C68.6278 43.941 69.915 42.6538 71.5028 42.6538H99.801C101.389 42.6538 102.676 43.941 102.676 45.5288V48.657H68.6278V45.5288Z" fill="#2E47BA"/>
<circle cx="72.2567" cy="45.6554" r="1.20956" fill="#F59898"/>
<circle cx="75.6112" cy="45.6554" r="1.20956" fill="#FFCB71"/>
<circle cx="78.9662" cy="45.6554" r="1.20956" fill="#22C1CB"/>
<ellipse cx="94.5279" cy="44.003" rx="11.5" ry="11.5" transform="rotate(-45 94.5279 44.003)" fill="#FFCB71"/>
<path d="M93.1675 46.5375V46.3466C93.1712 45.6914 93.2293 45.1692 93.3416 44.7799C93.4576 44.3906 93.6261 44.0761 93.8469 43.8365C94.0678 43.597 94.3336 43.3798 94.6443 43.1852C94.8764 43.0354 95.0842 42.8801 95.2676 42.7191C95.451 42.5581 95.597 42.3803 95.7056 42.1857C95.8141 41.9873 95.8684 41.7664 95.8684 41.5231C95.8684 41.2648 95.8066 41.0383 95.6831 40.8436C95.5596 40.649 95.393 40.4992 95.1834 40.3944C94.9775 40.2896 94.7491 40.2372 94.4983 40.2372C94.255 40.2372 94.0247 40.2915 93.8076 40.4C93.5905 40.5048 93.4127 40.6621 93.2742 40.8717C93.1357 41.0776 93.0608 41.334 93.0496 41.641H90.7585C90.7773 40.8923 90.957 40.2746 91.2976 39.788C91.6383 39.2976 92.0894 38.9326 92.6509 38.693C93.2124 38.4497 93.832 38.328 94.5095 38.328C95.2545 38.328 95.9133 38.4515 96.4861 38.6986C97.0588 38.9419 97.5081 39.2957 97.8337 39.7599C98.1594 40.2241 98.3223 40.7837 98.3223 41.4388C98.3223 41.8768 98.2493 42.2662 98.1033 42.6068C97.961 42.9437 97.7607 43.2432 97.5024 43.5052C97.2441 43.7635 96.939 43.9975 96.5872 44.2072C96.2914 44.3831 96.0481 44.5665 95.8572 44.7574C95.67 44.9484 95.5296 45.1692 95.436 45.42C95.3462 45.6709 95.2994 45.9797 95.2957 46.3466V46.5375H93.1675ZM94.2793 50.1312C93.905 50.1312 93.5849 50.0002 93.3191 49.7382C93.0571 49.4724 92.9279 49.1542 92.9316 48.7836C92.9279 48.4167 93.0571 48.1023 93.3191 47.8402C93.5849 47.5782 93.905 47.4471 94.2793 47.4471C94.6349 47.4471 94.9475 47.5782 95.217 47.8402C95.4866 48.1023 95.6232 48.4167 95.627 48.7836C95.6232 49.0306 95.5577 49.2571 95.4304 49.463C95.3069 49.6652 95.144 49.828 94.9419 49.9515C94.7397 50.0713 94.5189 50.1312 94.2793 50.1312Z" fill="#222E60"/>
<path d="M93.5966 57.3611C94.006 57.8229 94.7307 57.8108 95.1244 57.3357L97.1632 54.8756L91.4773 54.97L93.5966 57.3611Z" fill="#FFCB71"/>
</g>
<defs>
<clipPath id="clip0_2431_7973">
<rect width="115" height="115" rx="57.5" fill="white"/>
</clipPath>
</defs>
</svg>
